<svg width="34.531616" height="36.666687" viewBox="0 0 34.5316 36.6667" fill="none" xmlns="http://www.w3.org/2000/svg" xmlns:xlink="http://www.w3.org/1999/xlink">
	<desc>
			Created with Pixso.
	</desc>
	<defs/>
	<path id="Vector" d="M10.1886 36.2432C10.5183 36.517 10.9333 36.6669 11.3619 36.6667L30.865 36.6667C31.8374 36.6667 32.77 36.2804 33.4576 35.5928C34.1453 34.9051 34.5316 33.9725 34.5316 33L34.5316 19.7817C34.5312 18.8796 34.1984 18.0093 33.5967 17.3373C32.995 16.6652 32.1666 16.2385 31.2701 16.1389L18.0316 14.6667L18.0316 3.66669C18.0316 2.69421 17.6453 1.7616 16.9576 1.07397C16.27 0.386353 15.3374 0 14.365 0C13.3925 0 12.4598 0.386353 11.7722 1.07397C11.0846 1.7616 10.6982 2.69421 10.6982 3.66669L10.6982 25.6667L5.14331 23.4447C4.6792 23.2592 4.18213 23.1704 3.6825 23.1839C3.18286 23.1974 2.69128 23.3129 2.23792 23.5231C1.78455 23.7335 1.37891 24.0342 1.0459 24.4069C0.712891 24.7796 0.459595 25.2164 0.301392 25.6905L0.0942383 26.3138C-0.022583 26.6636 -0.0310059 27.0405 0.0700684 27.3951C0.171143 27.7498 0.377075 28.0656 0.660767 28.3012L10.1886 36.2432Z" fill="#4E75FF" fill-opacity="1.000000" fill-rule="nonzero"/>
</svg>
